<svg width="204" height="280" viewBox="0 0 204 287" fill="none" xmlns="http://www.w3.org/2000/svg">
<path d="M18.572 263.615L0.0888672 56.3448H203.151L184.645 263.581L101.494 286.627L18.572 263.615Z" fill="#1572B6"/>
<path d="M101.609 269.012L168.8 250.38L184.6 73.2883H101.609V269.012Z" fill="#33A9DC"/>
<path d="M101.609 148.377H135.25L137.566 122.349H101.609V96.9408H165.36L164.752 103.763L158.503 173.82H101.609V148.377Z" fill="white"/>
<path d="M101.766 214.405H101.651L73.3417 206.758L71.5301 186.486H46.0298L49.5957 226.399L101.674 240.892H101.823V214.405H101.766Z" fill="#EBEBEB"/>
<path d="M133.113 172.711L130.052 206.731L101.696 214.379V240.865L153.809 226.418L154.188 222.118L158.613 172.7H133.113V172.711Z" fill="white"/>
<path d="M101.717 96.9408V122.361H40.3279L39.8004 116.651L38.6424 103.763L38.0347 96.9408H101.717ZM101.625 148.377V173.797H73.6365L73.1435 168.087L71.9854 155.199L71.3777 148.377H101.614H101.625Z" fill="#EBEBEB"/>
</svg>
