<svg width="26" height="25" viewBox="0 0 26 25" fill="none" xmlns="http://www.w3.org/2000/svg">
<path d="M12.687 0.253338C5.84087 0.253338 0.294434 5.80442 0.294434 12.6459C0.294434 18.1242 3.8449 22.7675 8.76552 24.4056C9.38747 24.5226 9.61208 24.1392 9.61208 23.8077C9.61208 23.5134 9.60511 22.735 9.60046 21.7017C6.15146 22.4484 5.42495 20.0357 5.42495 20.0357C4.86031 18.6075 4.0455 18.2241 4.0455 18.2241C2.92398 17.4581 4.13457 17.4743 4.13457 17.4743C5.37693 17.5588 6.03063 18.7484 6.03063 18.7484C7.1359 20.6445 8.93049 20.0961 9.64074 19.777C9.74917 18.9785 10.0722 18.4293 10.4238 18.1234C7.67265 17.8128 4.77976 16.7478 4.77976 11.9991C4.77976 10.6429 5.25997 9.53845 6.05387 8.67098C5.91678 8.36039 5.49698 7.0979 6.16308 5.39082C6.16308 5.39082 7.20018 5.0601 9.57103 6.66183C10.5632 6.38687 11.6166 6.24978 12.6692 6.24281C13.7225 6.24978 14.7751 6.38765 15.7673 6.66183C18.1242 5.0601 19.1605 5.39082 19.1605 5.39082C19.8259 7.0979 19.4061 8.35961 19.2852 8.67098C20.0714 9.53845 20.5516 10.6437 20.5516 11.9991C20.5516 16.7587 17.6548 17.8082 14.9006 18.111C15.3312 18.482 15.7348 19.2449 15.7348 20.4028C15.7348 22.0603 15.7193 23.3956 15.7193 23.7992C15.7193 24.1214 15.9362 24.5087 16.5744 24.384C21.5314 22.7629 25.078 18.1156 25.078 12.6451C25.078 5.80365 19.5315 0.252563 12.6854 0.252563L12.687 0.253338Z" fill="#8257E6"/>
</svg>
