<svg width="26" height="26" viewBox="0 0 26 26" fill="none" xmlns="http://www.w3.org/2000/svg">
<path d="M6.04884 25.7066H0.9105V9.1594H6.04884V25.7066ZM3.47657 6.90225C1.83372 6.90225 0.500671 5.54088 0.500671 3.89802C0.500671 2.25517 1.83283 0.922119 3.47657 0.922119C5.12031 0.922119 6.45248 2.25428 6.45248 3.89802C6.45248 5.54088 5.11943 6.90225 3.47657 6.90225ZM25.2798 25.7066H20.153V17.6516C20.153 15.7317 20.114 13.2701 17.4815 13.2701C14.8101 13.2701 14.4003 15.3555 14.4003 17.5135V25.7066H9.26728V9.1594H14.195V11.4166H14.2667C14.9527 10.1163 16.6283 8.74426 19.1279 8.74426C24.3282 8.74426 25.2842 12.1689 25.2842 16.6169V25.7066H25.2798Z" fill="#8257E6"/>
</svg>
