<svg width="26" height="26" viewBox="0 0 26 26" fill="none" xmlns="http://www.w3.org/2000/svg">
<path d="M11.6082 16.9939L9.31225 19.2899C8.82823 19.7739 8.05877 19.7739 7.56235 19.3023C7.42583 19.1658 7.28931 19.0417 7.1528 18.9051C5.8745 17.6144 4.72031 16.2617 3.69023 14.8469C2.67256 13.432 1.85345 12.0172 1.25774 10.6148C0.674442 9.20002 0.376587 7.84726 0.376587 6.55655C0.376587 5.71263 0.525514 4.90593 0.82337 4.1613C1.12123 3.40425 1.59283 2.70925 2.25059 2.08872C3.04487 1.30685 3.91362 0.922119 4.83201 0.922119C5.1795 0.922119 5.527 0.996583 5.83727 1.14551C6.15994 1.29444 6.44539 1.51783 6.66878 1.84051L9.54805 5.89879C9.77144 6.20905 9.93278 6.4945 10.0445 6.76753C10.1562 7.02815 10.2182 7.28878 10.2182 7.52458C10.2182 7.82243 10.1313 8.12029 9.9576 8.40573C9.79626 8.69118 9.56046 8.98903 9.2626 9.28689L8.3194 10.2673C8.18288 10.4038 8.12082 10.5652 8.12082 10.7638C8.12082 10.863 8.13324 10.9499 8.15806 11.0492C8.19529 11.1485 8.23252 11.2229 8.25734 11.2974C8.48073 11.707 8.86546 12.2406 9.41153 12.886C9.97001 13.5313 10.5657 14.1891 11.2111 14.8469C11.3352 14.971 11.4717 15.0951 11.5958 15.2192C12.0922 15.7032 12.1046 16.4975 11.6082 16.9939Z" fill="#8257E6"/>
<path d="M25.1601 21.1876C25.1601 21.5351 25.098 21.895 24.9739 22.2425C24.9367 22.3418 24.8994 22.441 24.8498 22.5403C24.6388 22.9871 24.3658 23.4091 24.0059 23.8062C23.3977 24.4764 22.7276 24.9604 21.9705 25.2707C21.9581 25.2707 21.9457 25.2831 21.9333 25.2831C21.2011 25.5809 20.4068 25.7423 19.5504 25.7423C18.2846 25.7423 16.9318 25.4444 15.5046 24.8363C14.0774 24.2282 12.6501 23.4091 11.2353 22.379C10.7513 22.0191 10.2673 21.6592 9.80811 21.2744L13.8664 17.2162C14.2139 17.4768 14.5241 17.6754 14.7848 17.8119C14.8468 17.8367 14.9213 17.8739 15.0082 17.9112C15.1074 17.9484 15.2067 17.9608 15.3184 17.9608C15.5294 17.9608 15.6907 17.8863 15.8273 17.7498L16.7705 16.819C17.0807 16.5088 17.3786 16.273 17.664 16.124C17.9495 15.9503 18.2349 15.8634 18.5452 15.8634C18.781 15.8634 19.0292 15.913 19.3022 16.0247C19.5753 16.1364 19.8607 16.2978 20.171 16.5088L24.2789 19.4253C24.6016 19.6486 24.825 19.9093 24.9615 20.2195C25.0856 20.5298 25.1601 20.8401 25.1601 21.1876Z" fill="#8257E6"/>
</svg>
